<svg xmlns="http://www.w3.org/2000/svg" viewBox="0 0 290 12.03955078125" fill="none"> <path d="M81.1485 0.03955075C72.68125 0.03955075 66.05075 2.67605 66.05075 6.039525C66.05075 9.403 72.68125 12.0395 81.1485 12.0395C89.6155 12.0395 96.246 9.403 96.246 6.039525C96.246 2.67605 89.6155 0.03955075 81.1485 0.03955075ZM91.10575 9.22205C88.455 10.204275 84.9195 10.7471 81.1485 10.7471C77.37725 10.7471 73.8385 10.204275 71.191 9.22205C68.779 8.327075 67.3965 7.16715 67.3965 6.039525C67.3965 4.9119 68.779 3.751975 71.191 2.856975C73.84175 1.8747625 77.37725 1.3319525 81.1485 1.3319525C84.9195 1.3319525 88.45825 1.8747625 91.10575 2.856975C93.51775 3.751975 94.9005 4.9119 94.9005 6.039525C94.9005 7.16715 93.51775 8.327075 91.10575 9.22205Z" fill="white"></path> <path d="M174.5665 12.0395H202.56V10.74675H175.89775V6.687525H197.557V5.391525H175.89775V1.3323H202.56V0.03955075H174.5665V12.0395Z" fill="white"></path> <path d="M218.287 12.0395H246.28075V10.74675H219.6185V6.687525H241.2745V5.391525H219.6185V1.3323H246.28075V0.03955075H218.287V12.0395Z" fill="white"></path> <path d="M50.3245 0.03955075H49.0665V12.0395H50.3245V0.03955075Z" fill="white"></path> <path d="M127.701 10.53955H113.2325V12.03955H127.701V10.53955Z" fill="white"></path> <path d="M113.23275 0.03955075H111.9745V12.0395H113.23275V0.03955075Z" fill="white"></path> <path d="M112.6035 0.64752C115.19325 0.64752 120.7815 0.2815925 120.7815 4.539625" stroke="white" stroke-width="1.27354" stroke-miterlimit="10"></path> <path d="M112.6035 4.554725C117.385 4.554725 127.70125 3.8504 127.70125 12.039525" stroke="white" stroke-width="1.27354" stroke-miterlimit="10"></path> <path d="M144.68575 0.03955075H143.42775V12.0395H144.68575V0.03955075Z" fill="white"></path> <path d="M144.05675 0.648125C146.746 0.648125 152.549 0.25405 152.549 4.839625" stroke="white" stroke-width="1.27841" stroke-miterlimit="10"></path> <path d="M144.05675 4.854175C148.7385 4.854175 158.83975 4.178 158.83975 12.039575" stroke="white" stroke-width="1.27354" stroke-miterlimit="10"></path> <path d="M264.595 12.039475H262.005L283.6525 0.03955075H286.2375L264.595 12.039475Z" fill="white"></path> <path d="M290 0.03955075H262.005V1.3322975H290V0.03955075Z" fill="white"></path> <path d="M290 10.74675H262.005V12.039475L290 12.0395V10.74675Z" fill="white"></path> <path d="M16.513025 10.19165L8.251525 0.03955075L0 11.285725L1.0888675 12.01405L8.304775 2.180015L15.670575 11.228475L15.770475 11.3525L16.329875 12.0395L16.513025 11.902725L16.696175 12.0395L17.2556 11.3525L17.3555 11.228475L24.721275 2.180015L31.93725 12.01405L33.026 11.285725L24.77785 0.03955075L16.513025 10.19165Z" fill="white"></path> </svg>