<?xml version="1.0" encoding="UTF-8"?>
<!DOCTYPE svg PUBLIC "-//W3C//DTD SVG 1.1//EN" "http://www.w3.org/Graphics/SVG/1.1/DTD/svg11.dtd">
<svg xmlns="http://www.w3.org/2000/svg" version="1.1" width="956px" height="179px" style="shape-rendering:geometricPrecision; text-rendering:geometricPrecision; image-rendering:optimizeQuality; fill-rule:evenodd; clip-rule:evenodd" xmlns:xlink="http://www.w3.org/1999/xlink">
<!-- <g><path style="opacity:1" fill="#000000" d="M -0.5,-0.5 C 318.167,-0.5 636.833,-0.5 955.5,-0.5C 955.5,59.1667 955.5,118.833 955.5,178.5C 636.833,178.5 318.167,178.5 -0.5,178.5C -0.5,118.833 -0.5,59.1667 -0.5,-0.5 Z"/></g> -->
<g><path style="opacity:1" fill="#8df1f4" d="M 96.5,52.5 C 101.978,54.4571 107.145,57.1238 112,60.5C 111.705,63.4344 110.539,66.1011 108.5,68.5C 101.524,69.6644 94.5237,69.8311 87.5,69C 90.3853,63.3929 93.3853,57.8929 96.5,52.5 Z"/></g>
<g><path style="opacity:1" fill="#8eeff2" d="M 66.5,69.5 C 56.6522,69.8271 46.9856,69.4938 37.5,68.5C 52.0551,59.9705 66.5551,51.3039 81,42.5C 76.7463,51.6658 71.9129,60.6658 66.5,69.5 Z"/></g>
<g><path style="opacity:1" fill="#407074" d="M 172.5,69.5 C 184.007,68.1757 195.673,68.1757 207.5,69.5C 207.376,70.1067 207.043,70.44 206.5,70.5C 195.346,69.5052 184.012,69.1719 172.5,69.5 Z"/></g>
<g><path style="opacity:1" fill="#3e7578" d="M 226.5,69.5 C 220.642,69.1778 214.975,69.5111 209.5,70.5C 208.957,70.44 208.624,70.1067 208.5,69.5C 214.654,68.1834 220.654,68.1834 226.5,69.5 Z"/></g>
<g><path style="opacity:1" fill="#3f7174" d="M 823.5,69.5 C 835.007,68.1757 846.673,68.1757 858.5,69.5C 858.376,70.1067 858.043,70.44 857.5,70.5C 846.346,69.5052 835.012,69.1719 823.5,69.5 Z"/></g>
<g><path style="opacity:1" fill="#3f7176" d="M 879.5,69.5 C 893.339,68.1743 907.339,68.1743 921.5,69.5C 921.376,70.1067 921.043,70.44 920.5,70.5C 907.01,69.5043 893.344,69.171 879.5,69.5 Z"/></g>
<g><path style="opacity:1" fill="#245056" d="M 37.5,68.5 C 46.9856,69.4938 56.6522,69.8271 66.5,69.5C 56.6589,70.8229 46.6589,70.8229 36.5,69.5C 36.6236,68.8933 36.9569,68.56 37.5,68.5 Z"/></g>
<g><path style="opacity:1" fill="#8cf2f5" d="M 573.5,68.5 C 579.537,68.1707 585.537,68.5041 591.5,69.5C 597.14,77.6402 602.973,85.6402 609,93.5C 613.833,85.8333 618.667,78.1667 623.5,70.5C 629.807,69.3361 636.141,69.1694 642.5,70C 633.788,81.9226 624.955,93.756 616,105.5C 615.5,111.825 615.334,118.158 615.5,124.5C 610.833,124.5 606.167,124.5 601.5,124.5C 601.666,118.158 601.5,111.825 601,105.5C 591.206,93.5529 582.04,81.2195 573.5,68.5 Z"/></g>
<g><path style="opacity:1" fill="#8cf5f8" d="M 823.5,69.5 C 835.012,69.1719 846.346,69.5052 857.5,70.5C 855.178,74.4725 852.845,78.4725 850.5,82.5C 840.851,83.3321 831.184,83.8321 821.5,84C 811.629,89.6668 809.962,97.1668 816.5,106.5C 818.487,108.327 820.821,109.327 823.5,109.5C 834.833,110.167 846.167,110.833 857.5,111.5C 855.057,115.783 852.39,119.95 849.5,124C 839.5,124.667 829.5,124.667 819.5,124C 808.667,121.167 801.833,114.333 799,103.5C 796.025,89.6328 800.525,79.1328 812.5,72C 816.014,70.4383 819.681,69.605 823.5,69.5 Z"/></g>
<g><path style="opacity:1" fill="#8df4f8" d="M 172.5,69.5 C 184.012,69.1719 195.346,69.5052 206.5,70.5C 204.057,74.7832 201.39,78.9498 198.5,83C 190.167,83.3333 181.833,83.6667 173.5,84C 160.773,88.0559 158.106,95.7226 165.5,107C 167.65,108.411 169.984,109.245 172.5,109.5C 183.833,110.167 195.167,110.833 206.5,111.5C 203.719,115.554 201.053,119.72 198.5,124C 188.5,124.667 178.5,124.667 168.5,124C 150.783,117.069 144.283,104.236 149,85.5C 153.708,75.6318 161.542,70.2984 172.5,69.5 Z"/></g>
<g><path style="opacity:1" fill="#8ef5f9" d="M 879.5,69.5 C 893.344,69.171 907.01,69.5043 920.5,70.5C 918.178,74.4725 915.845,78.4725 913.5,82.5C 901.514,83.3326 889.514,83.8326 877.5,84C 875.194,85.7931 874.861,87.9597 876.5,90.5C 888.486,91.3326 900.486,91.8326 912.5,92C 921.983,96.1466 925.149,103.313 922,113.5C 920.095,119.07 916.261,122.57 910.5,124C 893.833,124.667 877.167,124.667 860.5,124C 863.066,119.684 865.733,115.517 868.5,111.5C 881.265,110.851 893.932,110.185 906.5,109.5C 907.693,109.03 908.36,108.03 908.5,106.5C 908.291,105.006 907.624,103.839 906.5,103C 896.167,102.667 885.833,102.333 875.5,102C 866.299,100.469 861.633,94.969 861.5,85.5C 862.787,74.8805 868.787,69.5472 879.5,69.5 Z"/></g>
<g><path style="opacity:1" fill="#85eaee" d="M 777.5,68.5 C 782.167,68.5 786.833,68.5 791.5,68.5C 791.5,87.1667 791.5,105.833 791.5,124.5C 786.5,124.5 781.5,124.5 776.5,124.5C 776.18,105.757 776.514,87.0903 777.5,68.5 Z"/></g>
<g><path style="opacity:1" fill="#4f8989" d="M 394.5,70.5 C 377.341,69.5033 360.008,69.17 342.5,69.5C 342.5,87.8333 342.5,106.167 342.5,124.5C 341.503,106.007 341.17,87.3408 341.5,68.5C 359.512,68.1671 377.512,68.5005 395.5,69.5C 395.376,70.1067 395.043,70.44 394.5,70.5 Z"/></g>
<g><path style="opacity:1" fill="#47797b" d="M 76.5,88.5 C 83.344,87.1812 90.344,87.1812 97.5,88.5C 97.3764,89.1067 97.0431,89.44 96.5,89.5C 90.021,88.5093 83.3543,88.176 76.5,88.5 Z"/></g>
<g><path style="opacity:1" fill="#8ef3f7" d="M 226.5,69.5 C 231.914,77.3151 237.58,84.9818 243.5,92.5C 248.944,85.1255 254.277,77.6255 259.5,70C 265.5,69.3333 271.5,69.3333 277.5,70C 268.301,81.5654 259.468,93.3987 251,105.5C 250.5,111.825 250.334,118.158 250.5,124.5C 245.833,124.5 241.167,124.5 236.5,124.5C 236.666,118.491 236.499,112.491 236,106.5C 227.335,94.3411 218.502,82.3411 209.5,70.5C 214.975,69.5111 220.642,69.1778 226.5,69.5 Z"/></g>
<g><path style="opacity:1" fill="#97f0f7" d="M 356.5,89.5 C 368.505,89.3335 380.505,89.5001 392.5,90C 390.081,94.172 387.415,98.172 384.5,102C 375.173,102.5 365.839,102.666 356.5,102.5C 365.342,101.833 374.342,101.167 383.5,100.5C 373.851,99.6679 364.184,99.1679 354.5,99C 350.502,97.7554 350.669,96.922 355,96.5C 364.496,97.1676 373.996,96.8343 383.5,95.5C 372.831,94.3207 362.164,94.3207 351.5,95.5C 351.5,94.5 351.5,93.5 351.5,92.5C 363.851,92.8324 376.185,92.499 388.5,91.5C 377.674,90.8333 367.008,90.1666 356.5,89.5 Z"/></g>
<g><path style="opacity:1" fill="#98b5b7" d="M 118.5,88.5 C 121.625,87.5206 124.958,87.1872 128.5,87.5C 128.5,93.5 128.5,99.5 128.5,105.5C 128.167,105.5 127.833,105.5 127.5,105.5C 127.5,99.8333 127.5,94.1667 127.5,88.5C 124.5,88.5 121.5,88.5 118.5,88.5 Z"/></g>
<g><path style="opacity:1" fill="#8cf3f7" d="M 409.5,69.5 C 423.226,69.0734 436.893,69.5734 450.5,71C 463.847,77.3755 467.013,87.2089 460,100.5C 457.879,103.119 455.379,105.119 452.5,106.5C 457.076,111.987 461.409,117.653 465.5,123.5C 459.167,124.833 452.833,124.833 446.5,123.5C 443.253,119.341 440.253,115.008 437.5,110.5C 430.197,109.503 422.863,109.169 415.5,109.5C 415.5,114.5 415.5,119.5 415.5,124.5C 410.5,124.5 405.5,124.5 400.5,124.5C 400.5,114.833 400.5,105.167 400.5,95.5C 414.837,95.6666 429.171,95.4999 443.5,95C 448.115,93.8765 449.615,91.0431 448,86.5C 446.509,84.9963 444.676,84.1629 442.5,84C 428.821,83.8327 415.154,83.3327 401.5,82.5C 404.194,78.1493 406.86,73.8159 409.5,69.5 Z"/></g>
<g><path style="opacity:1" fill="#8df4f8" d="M 118.5,88.5 C 121.5,88.5 124.5,88.5 127.5,88.5C 127.5,94.1667 127.5,99.8333 127.5,105.5C 121.074,106.12 115.074,105.453 109.5,103.5C 111.749,97.9946 114.749,92.9946 118.5,88.5 Z"/></g>
<g><path style="opacity:1" fill="#8bf4f6" d="M 556.5,67.5 C 560.548,67.4411 563.715,69.1078 566,72.5C 570.61,89.7166 574.777,107.05 578.5,124.5C 573.786,124.827 569.12,124.493 564.5,123.5C 561.836,112.843 559.169,102.176 556.5,91.5C 551.832,103.014 546.499,114.181 540.5,125C 536.756,125.929 533.256,125.429 530,123.5C 525,112.833 520,102.167 515,91.5C 512.306,102.471 509.806,113.471 507.5,124.5C 502.786,124.827 498.12,124.493 493.5,123.5C 497.683,106.084 502.183,88.7507 507,71.5C 511.958,67.2852 516.625,67.6185 521,72.5C 526.274,83.381 531.274,94.381 536,105.5C 541.333,94.1667 546.667,82.8333 552,71.5C 553.397,69.9297 554.897,68.5964 556.5,67.5 Z"/></g>
<g><path style="opacity:1" fill="#7dc6c8" d="M 35.5,87.5 C 42.1667,87.5 48.8333,87.5 55.5,87.5C 52.2433,93.6814 49.2433,100.015 46.5,106.5C 42.8333,106.5 39.1667,106.5 35.5,106.5C 35.5,100.167 35.5,93.8333 35.5,87.5 Z"/></g>
<g><path style="opacity:1" fill="#8af8fa" d="M 36.5,88.5 C 41.2332,88.2232 45.8999,88.5565 50.5,89.5C 51.6309,91.0745 51.7975,92.7412 51,94.5C 50.195,92.0989 49.3617,92.2656 48.5,95C 48.8333,95.3333 49.1667,95.6667 49.5,96C 47.6201,98.9747 46.2867,102.141 45.5,105.5C 42.5,105.5 39.5,105.5 36.5,105.5C 36.5,99.8333 36.5,94.1667 36.5,88.5 Z"/></g>
<g><path style="opacity:1" fill="#8cf4f7" d="M 76.5,88.5 C 83.3543,88.176 90.021,88.5093 96.5,89.5C 93.5,94.8333 90.5,100.167 87.5,105.5C 80.6457,105.824 73.979,105.491 67.5,104.5C 69.9934,98.8428 72.9934,93.5095 76.5,88.5 Z"/></g>
<g><path style="opacity:1" fill="#8ef3f7" d="M 726.5,92.5 C 725.778,92.0825 725.278,91.4158 725,90.5C 724.907,94.3109 725.074,98.1442 725.5,102C 725.325,104.823 724.658,107.49 723.5,110C 725.279,113.956 725.946,118.123 725.5,122.5C 721.833,122.5 718.167,122.5 714.5,122.5C 714.333,108.163 714.5,93.8295 715,79.5C 716.496,69.8375 720.996,68.1708 728.5,74.5C 729.482,77.5335 731.482,79.2002 734.5,79.5C 741.467,86.6364 748.3,93.9697 755,101.5C 755.5,90.505 755.667,79.505 755.5,68.5C 759.833,68.5 764.167,68.5 768.5,68.5C 768.667,85.5033 768.5,102.503 768,119.5C 766.305,124.599 762.805,126.432 757.5,125C 747.266,113.996 736.933,103.163 726.5,92.5 Z"/></g>
<g><path style="opacity:1" fill="#498586" d="M 67.5,104.5 C 73.979,105.491 80.6457,105.824 87.5,105.5C 80.656,106.819 73.656,106.819 66.5,105.5C 66.6236,104.893 66.9569,104.56 67.5,104.5 Z"/></g>
<g><path style="opacity:1" fill="#53878a" d="M 109.5,103.5 C 115.074,105.453 121.074,106.12 127.5,105.5C 127.833,105.5 128.167,105.5 128.5,105.5C 122.021,106.491 115.354,106.824 108.5,106.5C 108.263,105.209 108.596,104.209 109.5,103.5 Z"/></g>
<g><path style="opacity:1" fill="#3e7675" d="M 172.5,109.5 C 184.186,109.168 195.852,109.501 207.5,110.5C 207.376,111.107 207.043,111.44 206.5,111.5C 195.167,110.833 183.833,110.167 172.5,109.5 Z"/></g>
<g><path style="opacity:1" fill="#45797d" d="M 356.5,102.5 C 356.5,104.833 356.5,107.167 356.5,109.5C 369.517,109.168 382.517,109.501 395.5,110.5C 395.376,111.107 395.043,111.44 394.5,111.5C 381.677,110.505 368.677,110.171 355.5,110.5C 355.194,107.615 355.527,104.948 356.5,102.5 Z"/></g>
<g><path style="opacity:1" fill="#407575" d="M 823.5,109.5 C 835.186,109.168 846.852,109.501 858.5,110.5C 858.376,111.107 858.043,111.44 857.5,111.5C 846.167,110.833 834.833,110.167 823.5,109.5 Z"/></g>
<g><path style="opacity:1" fill="#417579" d="M 906.5,109.5 C 893.932,110.185 881.265,110.851 868.5,111.5C 880.789,109.52 893.456,108.853 906.5,109.5 Z"/></g>
<g><path style="opacity:1" fill="#8cf5f9" d="M 660.5,68.5 C 670.974,67.9037 681.308,68.7371 691.5,71C 698.732,73.899 703.565,79.0657 706,86.5C 710.637,112.942 699.637,125.942 673,125.5C 647.179,125.909 636.179,113.242 640,87.5C 643.222,77.1061 650.055,70.7728 660.5,68.5 Z"/></g>
<g><path style="opacity:1" fill="#1f2937" d="M 662.5,82.5 C 669.508,82.3337 676.508,82.5004 683.5,83C 690.75,85.0775 693.75,89.9108 692.5,97.5C 692.724,105.114 689.057,109.614 681.5,111C 673.64,112.088 665.974,111.421 658.5,109C 653.854,103.689 652.354,97.5225 654,90.5C 655.773,86.5596 658.606,83.893 662.5,82.5 Z"/></g>
<g><path style="opacity:1" fill="#8bf1f5" d="M 284.5,69.5 C 297.171,69.3334 309.838,69.5001 322.5,70C 332.045,72.587 335.879,78.7537 334,88.5C 332.939,91.5616 331.106,94.0616 328.5,96C 334.667,99.8452 336.834,105.345 335,112.5C 333.702,117.274 330.868,120.774 326.5,123C 309.548,124.427 292.548,124.927 275.5,124.5C 275.5,113.167 275.5,101.833 275.5,90.5C 290.412,90.824 305.245,90.4906 320,89.5C 320.743,87.5594 320.576,85.7261 319.5,84C 305.155,83.8328 290.822,83.3328 276.5,82.5C 279.44,78.278 282.106,73.9447 284.5,69.5 Z"/></g>
<g><path style="opacity:1" fill="#030509" d="M 290.5,102.5 C 300.172,102.334 309.839,102.5 319.5,103C 320.833,105 320.833,107 319.5,109C 309.839,109.5 300.172,109.666 290.5,109.5C 290.5,107.167 290.5,104.833 290.5,102.5 Z"/></g>
<g><path style="opacity:1" fill="#9ee5e8" d="M 734.5,79.5 C 731.482,79.2002 729.482,77.5335 728.5,74.5C 720.996,68.1708 716.496,69.8375 715,79.5C 714.5,93.8295 714.333,108.163 714.5,122.5C 718.167,122.5 721.833,122.5 725.5,122.5C 725.946,118.123 725.279,113.956 723.5,110C 724.658,107.49 725.325,104.823 725.5,102C 725.074,98.1442 724.907,94.3109 725,90.5C 725.278,91.4158 725.778,92.0825 726.5,92.5C 726.5,103.167 726.5,113.833 726.5,124.5C 722.167,124.5 717.833,124.5 713.5,124.5C 713.333,107.497 713.5,90.4967 714,73.5C 715.806,69.1837 718.973,67.3503 723.5,68C 727.732,71.3027 731.399,75.1361 734.5,79.5 Z"/></g>
<g><path style="opacity:1" fill="#8cf6fa" d="M 394.5,70.5 C 391.719,74.5536 389.053,78.7203 386.5,83C 376.506,83.4998 366.506,83.6665 356.5,83.5C 356.5,85.5 356.5,87.5 356.5,89.5C 367.008,90.1666 377.674,90.8333 388.5,91.5C 376.185,92.499 363.851,92.8324 351.5,92.5C 351.5,93.5 351.5,94.5 351.5,95.5C 362.164,94.3207 372.831,94.3207 383.5,95.5C 373.996,96.8343 364.496,97.1676 355,96.5C 350.669,96.922 350.502,97.7554 354.5,99C 364.184,99.1679 373.851,99.6679 383.5,100.5C 374.342,101.167 365.342,101.833 356.5,102.5C 355.527,104.948 355.194,107.615 355.5,110.5C 368.677,110.171 381.677,110.505 394.5,111.5C 392.057,115.783 389.39,119.95 386.5,124C 371.837,124.5 357.17,124.667 342.5,124.5C 342.5,106.167 342.5,87.8333 342.5,69.5C 360.008,69.17 377.341,69.5033 394.5,70.5 Z"/></g>
<g><path style="opacity:1" fill="#8ceff2" d="M 55.5,124.5 C 62.5316,124.17 69.5316,124.503 76.5,125.5C 73,131.167 69.5,136.833 66,142.5C 61.0648,139.894 56.3981,136.894 52,133.5C 52.5592,130.363 53.7259,127.363 55.5,124.5 Z"/></g>
<g><path style="opacity:1" fill="#8df0f4" d="M 96.5,124.5 C 106.839,124.334 117.172,124.5 127.5,125C 112.637,133.261 97.9708,141.761 83.5,150.5C 83.1667,150.333 82.8333,150.167 82.5,150C 87.8281,141.842 92.4948,133.342 96.5,124.5 Z"/></g>
</svg>
