<svg xmlns="http://www.w3.org/2000/svg" viewBox="0 0 66 19" fill="none"> <path d="M4.826875 0C2.1605225 0 0 2.1261175 0 4.75V14.25C0 16.873875 2.1605225 19 4.826875 19H14.4806C17.146925 19 19.30745 16.873875 19.30745 14.25V0H4.826875Z" fill="#B1EC52"></path> <path d="M15.9548 7.122975H13.637425L11.433775 9.4999V4.7499H9.64575V5.899775C9.58695 5.826475 9.5242 5.75315 9.45755 5.67985C8.80665 5.000725 7.8695 4.6573 6.66965 4.6573C5.2855 4.6573 4.497375 5.266975 4.0778 5.780175C3.560225 6.41685 3.328875 7.28505 3.48965 7.991175C3.905275 9.820175 5.63055 10.113425 6.897075 10.2755C7.89695 10.402825 8.8537 10.5842 8.830175 11.4601C8.802725 12.37075 7.759725 12.59455 7.073525 12.59455C5.289425 12.59455 5.2306 11.29805 5.2306 11.29805H3.3132C3.34065 11.784225 3.48965 12.567525 4.101325 13.23895C4.767925 13.97595 5.771725 14.346375 7.07745 14.346375C8.08125 14.346375 8.99485 14.0261 9.64575 13.455025V14.238325H11.433775V11.99645L12.065075 11.313475L13.8727 14.238325H15.9548L13.32375 9.959075L15.9548 7.122975ZM5.27765 7.586025C5.120825 6.9069 5.807 6.30495 6.701025 6.30495C7.50485 6.30495 8.308675 6.48245 8.6145 7.58215H9.641825V9.264525C8.35965 8.22655 5.575675 8.878675 5.27765 7.586025Z" fill="#4D5759"></path> <path d="M23.85975 13.05C23.9813 13.0886 24.11855 13.1079 24.279325 13.1079C24.4793 13.1079 24.64005 13.05 24.7616 12.9304C24.883175 12.810775 24.961575 12.652575 25.00075 12.478925L22.456 7.17715H24.149925L25.781 10.981775L27.21225 7.17715H28.82375L26.53 12.40175C26.228 13.09245 25.91825 13.60565 25.57725 13.929775C25.236 14.265475 24.867475 14.4314 24.45575 14.4314C24.3146 14.4314 24.204825 14.4314 24.114625 14.412125C24.012675 14.400525 23.93425 14.38125 23.863675 14.36195L23.67155 14.304075C23.620575 14.284775 23.5696 14.265475 23.52255 14.2539V12.91495C23.612725 12.972825 23.722525 13.023 23.851925 13.053875L23.85975 13.05Z" fill="#4D5759"></path> <path d="M31.5845 12.26275C31.4825 12.2936 31.37275 12.3129 31.25525 12.3399C31.1335 12.3592 31.00425 12.3785 30.87475 12.390075C30.7455 12.409375 30.616 12.409375 30.4945 12.409375C30.18475 12.409375 29.922 12.3785 29.68275 12.3322C29.4515 12.274325 29.2515 12.193275 29.09075 12.077525C28.93 11.961775 28.8085 11.7997 28.73 11.6029C28.6515 11.413825 28.6085 11.17845 28.6085 10.9045V9.01375H29.98875V10.63825C29.98875 10.784875 30.00825 10.916075 30.0475 11.00095C30.07875 11.101275 30.13775 11.17845 30.216 11.23635C30.2945 11.294225 30.38475 11.336675 30.50625 11.35595C30.62775 11.37525 30.765 11.386825 30.92575 11.386825C31.165 11.386825 31.34525 11.367525 31.4865 11.32895C31.62775 11.278775 31.7375 11.228625 31.816 11.182325V9.01375H33.196V14.25765H31.816V12.189425C31.757 12.208725 31.67475 12.2396 31.57675 12.2666L31.5845 12.26275Z" fill="#4D5759"></path> <path d="M38.556 13.601725C38.56775 13.70205 38.59525 13.7908 38.62675 13.8371C38.658 13.90655 38.6855 13.94515 38.72875 13.976C38.76775 14.006875 38.79925 14.026175 38.85025 14.0339V14.249975H37.317L37.2385 14.003025C37.1995 13.9027 37.18775 13.786925 37.18775 13.63645L36.878 13.941275C36.768 14.030025 36.65825 14.1072 36.529 14.17665C36.3995 14.246125 36.25825 14.304 36.08975 14.342575C35.92125 14.381175 35.71725 14.40045 35.48975 14.40045C35.2625 14.40045 35.031 14.3696 34.82725 14.300125C34.62725 14.230675 34.4585 14.12265 34.30575 13.9953C34.1645 13.8564 34.04675 13.690475 33.9645 13.4821C33.886 13.2853 33.843 13.049925 33.843 12.783675C33.843 12.5676 33.87425 12.3708 33.945 12.181725C34.0155 11.99265 34.1135 11.838325 34.235 11.6994C34.3645 11.5605 34.5175 11.444725 34.69375 11.355975C34.87425 11.25565 35.07425 11.197775 35.3055 11.1669L36.65825 10.970125C36.70925 10.95855 36.76025 10.95855 36.819 10.93925C36.878 10.927675 36.92875 10.908375 36.97975 10.8698C37.03075 10.838925 37.07 10.80035 37.1015 10.750175C37.13275 10.6923 37.15225 10.62285 37.15225 10.5341C37.15225 10.44535 37.13275 10.368175 37.11325 10.298725C37.08175 10.22155 37.03475 10.1598 36.972 10.10965C36.9015 10.05175 36.823 10.009325 36.71325 9.9823C36.6035 9.951425 36.46225 9.943725 36.3015 9.943725C36.10925 9.943725 35.972 9.963 35.86225 9.993875C35.74075 10.032475 35.6505 10.0942 35.59175 10.152075C35.52125 10.22155 35.47025 10.298725 35.44275 10.37975L35.384 10.665275H34.00375C34.00375 10.6074 34.0155 10.51865 34.035 10.39905C34.05475 10.291 34.094 10.16365 34.15675 10.02475C34.2075 9.897425 34.29775 9.7585 34.39575 9.6196C34.49775 9.480675 34.62725 9.35335 34.8075 9.233725C34.96825 9.125675 35.18 9.02535 35.41925 8.9559C35.6585 8.88645 35.94075 8.84785 36.28175 8.836275C36.7525 8.836275 37.1445 8.88645 37.4425 8.9752C37.73275 9.075525 37.964 9.20285 38.13275 9.349475C38.2935 9.5077 38.40325 9.673625 38.462 9.862675C38.513 10.05175 38.5405 10.236975 38.5405 10.42605V13.204275C38.5405 13.362475 38.55225 13.489825 38.57175 13.59015L38.556 13.601725ZM36.8935 11.8113C36.8035 11.8499 36.6935 11.888475 36.5525 11.911625L36.18375 11.981075C36.023 12.01195 35.882 12.038975 35.76425 12.0814C35.64275 12.12 35.54475 12.17015 35.46225 12.22805C35.384 12.2975 35.32125 12.374675 35.282 12.463425C35.24275 12.552175 35.22325 12.6602 35.22325 12.799125C35.22325 12.90715 35.24275 13.007475 35.27425 13.08465C35.31325 13.1734 35.36425 13.2313 35.435 13.293025C35.49375 13.3432 35.56425 13.39335 35.64675 13.41265C35.73675 13.443525 35.827 13.451225 35.929 13.451225C35.98 13.451225 36.0505 13.43965 36.129 13.43195C36.20725 13.420375 36.28975 13.401075 36.38775 13.37405C36.478 13.335475 36.568 13.296875 36.65825 13.23515C36.7485 13.184975 36.827 13.1078 36.8975 13.019075C36.976 12.930325 37.03875 12.822275 37.07775 12.68335C37.117 12.556025 37.1485 12.40555 37.1485 12.2319V11.6994C37.07 11.749575 36.97975 11.78815 36.8975 11.819025L36.8935 11.8113Z" fill="#4D5759"></path> <path d="M42.42225 10.49935C42.383 10.391325 42.32025 10.302575 42.2535 10.2331C42.17525 10.15595 42.085 10.105775 41.983 10.0672C41.87325 10.036325 41.74375 10.017025 41.591 10.017025C41.3595 10.017025 41.17925 10.0672 41.042 10.175225C40.90075 10.283275 40.791 10.4106 40.7205 10.568825C40.642 10.734725 40.599 10.912225 40.5715 11.1013C40.55175 11.290375 40.53225 11.464025 40.53225 11.6338C40.53225 11.803575 40.544 11.9888 40.5635 12.174025C40.58325 12.3708 40.6225 12.536725 40.70475 12.694925C40.77525 12.853125 40.87325 12.99205 41.02625 13.088525C41.1675 13.19655 41.35575 13.246725 41.59875 13.246725C41.7595 13.246725 41.90075 13.21585 42.01825 13.1464C42.128 13.088525 42.23 13.007475 42.3085 12.918725C42.387 12.8184 42.44975 12.72195 42.48875 12.6139C42.52025 12.513575 42.53975 12.4171 42.53975 12.32835H43.98275C43.98275 12.4171 43.971 12.52515 43.9435 12.66405C43.90425 12.8107 43.8535 12.9496 43.78275 13.1078C43.71225 13.254425 43.61425 13.41265 43.5005 13.57085C43.371 13.72905 43.23 13.867975 43.0495 13.983725C42.86925 14.11105 42.66925 14.211375 42.43 14.28855C42.19075 14.365725 41.9085 14.408175 41.59875 14.408175C41.19875 14.408175 40.838 14.3503 40.52825 14.230675C40.2185 14.10335 39.95575 13.92585 39.748 13.690475C39.53625 13.455075 39.3755 13.16955 39.26575 12.81455C39.156 12.471125 39.097 12.0737 39.097 11.6338C39.097 11.193925 39.156 10.7849 39.2775 10.441475C39.399 10.105775 39.56775 9.812525 39.78725 9.573275C40.00675 9.3379 40.2695 9.1604 40.57925 9.0408C40.88125 8.91345 41.23025 8.851725 41.60275 8.851725C41.7635 8.851725 41.932 8.871 42.1125 8.8903C42.281 8.9096 42.4535 8.95975 42.62225 9.017625C42.79075 9.0871 42.9515 9.164275 43.11225 9.2646C43.26125 9.364925 43.4025 9.49225 43.53175 9.638875C43.6535 9.7855 43.7515 9.963 43.83375 10.1598C43.91225 10.3566 43.96325 10.591975 43.98275 10.8582H42.53975C42.5085 10.7193 42.481 10.591975 42.43 10.4955L42.42225 10.49935Z" fill="#4D5759"></path> <path d="M48.798 9.009975V10.11355H47.1865V14.2539H45.80625V10.11355H44.19475V9.009975H48.802H48.798Z" fill="#4D5759"></path> <path d="M52.6405 10.9045V9.01375H54.02075V14.25765H52.6405V12.011925H50.6095V14.25765H49.22925V9.01375H50.6095V10.9045H52.6405Z" fill="#4D5759"></path> <path d="M56.34975 12.243525L58.2945 9.009975H59.74525V14.2539H58.365V11.0898H58.3455L56.4635 14.2539H54.94975V9.009975H56.33V12.243525H56.34975Z" fill="#4D5759"></path> <path d="M64.067 9.010075H65.90975L63.70625 11.18635L66 14.250125H64.19625L62.63575 12.0314L62.075 12.594775V14.250125H60.69475V9.006225H62.075V10.997275L64.067 9.006225V9.010075Z" fill="#4D5759"></path> </svg>